# xmcd CD database file generated by Grip 2.95
# 
# Track frame offsets:
#       187
#       17410
#       32187
#       49640
#       64130
#       76967
#       95032
#       108240
#       124020
#       140947
# 
# Disc length: 2054 seconds
# 
# Revision: 3
# Processed by: cddbd v1.4b41PL1 Copyright (c) Steve Scherf et al.
# Submitted via: Grip 2.95
# 
DISCID=8408040a
DTITLE=Crystal Gayle - These Days
DYEAR=1900
DGENRE=
TTITLE0=Too Many Lovers
TTITLE1=If You Ever Change Your Mind
TTITLE2=Ain't no Love in the Heart of the City
TTITLE3=Same Old Story (Same Old Song)
TTITLE4=Help Yourselves to Each Other
TTITLE5=Take it Easy
TTITLE6=I Just Can't Leave Your Love Alone
TTITLE7=You've Almost Got Me Believin'
TTITLE8=Lover Man (Oh, Where Can You Be?)
TTITLE9=What A Little Moonlight Can Do
EXTD=
EXTT0=
EXTT1=
EXTT2=
EXTT3=
EXTT4=
EXTT5=
EXTT6=
EXTT7=
EXTT8=
EXTT9=
PLAYORDER=
